<svg width="64" height="50" viewBox="0 0 64 50" fill="none" xmlns="http://www.w3.org/2000/svg">
<path d="M14.5474 48.885V24.1601L6.87945 17.145L0.00341797 13.2522V44.5217C0.00341797 46.936 1.95946 48.885 4.36671 48.885H14.5474Z" fill="#4285F4"/>
<path d="M49.4526 48.885H59.6333C62.0478 48.885 63.9966 46.9287 63.9966 44.5217V13.2524L56.2084 17.7112L49.4526 24.1601V48.885Z" fill="#34A853"/>
<path d="M14.5473 24.16L13.5039 14.4992L14.5473 5.25293L32 18.3426L49.4527 5.25293L50.6198 14L49.4527 24.16L32 37.2496L14.5473 24.16Z" fill="#EA4335"/>
<path d="M49.4526 5.25303V24.1601L63.9966 13.2522V7.43456C63.9966 2.03887 57.8373 -1.03707 53.5252 2.19885L49.4526 5.25303Z" fill="#FBBC04"/>
<path d="M0.00341797 13.2522L6.69247 18.2692L14.5474 24.1601V5.25302L10.4748 2.19884C6.15528 -1.03732 0.00341797 2.03886 0.00341797 7.4343V13.2519V13.2522Z" fill="#C5221F"/>
</svg>
