<svg width="64" height="64" viewBox="0 0 64 64" fill="none" xmlns="http://www.w3.org/2000/svg">
<path d="M54.5305 54.5318H45.0478V39.681C45.0478 36.1398 44.9845 31.581 40.1158 31.581C35.1768 31.581 34.421 35.4395 34.421 39.4233V54.5308H24.9385V23.9918H34.0418V28.1653H34.1693C35.0803 26.6075 36.3968 25.3261 37.9785 24.4573C39.5602 23.5886 41.3479 23.1651 43.1513 23.232C52.7625 23.232 54.5345 29.554 54.5345 37.7785L54.5305 54.5318ZM14.2385 19.8175C11.1993 19.818 8.73501 17.3545 8.73451 14.3153C8.73401 11.276 11.1973 8.81179 14.2365 8.81129C17.2758 8.81054 19.74 11.274 19.7405 14.3133C19.7408 15.7728 19.1613 17.1726 18.1294 18.2049C17.0976 19.2371 15.698 19.8172 14.2385 19.8175ZM18.98 54.532H9.48726V23.9918H18.9798V54.5318L18.98 54.532ZM59.258 0.0045359H4.72226C2.14476 -0.0244641 0.0310117 2.04029 -0.000488281 4.61779V59.381C0.0300117 61.9598 2.14351 64.0265 4.72201 63.9995H59.258C61.842 64.0315 63.9638 61.9648 63.9995 59.381V4.61354C63.9628 2.03104 61.8408 -0.0334641 59.258 0.000285903" fill="#0A66C2"/>
</svg>
